<?xml version="1.0" encoding="UTF-8"?>
<svg fill="none" viewBox="0 0 90 90" xmlns="http://www.w3.org/2000/svg">
  <path d="m3.9341 4.4258h81.665v80.855h-81.665v-80.855z" fill="url(#a)"/>
  <path d="m3.9341 4.4258h81.665v80.855h-81.665v-80.855zm-3.7129 84.634h89.073v-88.413h-89.073v88.413zm60.066-52.128c-2.9274 0-3.9271 1.5081-3.9271 2.7618 0 1.3627 0.6605 2.3075 4.6054 4.3788 5.8193 2.8708 7.64 5.6326 7.64 9.6662 0 6.0505-4.534 9.3029-10.657 9.3029-3.2309 0-6.0155-0.6723-7.6042-1.6171-0.2678-0.1091-0.3035-0.3089-0.3035-0.5996v-5.5781c0-0.3815 0.1785-0.4906 0.4463-0.3089 2.3384 1.5444 5.0159 2.2349 7.4614 2.2349 2.9275 0 4.1592-1.2537 4.1592-2.9435 0-1.3627-0.8569-2.5619-4.6054-4.5424-5.2659-2.5619-7.4615-5.1601-7.4615-9.5208 0-4.8695 3.7486-8.9213 10.246-8.9213 3.1952 0 5.4265 0.4906 6.6404 1.0539 0.3034 0.1817 0.3748 0.4905 0.3748 0.7631v5.1783c0 0.3089-0.1785 0.4906-0.5533 0.3816-1.6423-1.0539-4.0521-1.6898-6.4619-1.6898zm-31.916 4.4879c0.8568 0.0727 1.5173 0.0727 2.9989 0.0727 4.3376 0 8.4253-1.5445 8.4253-7.5586 0-4.7967-2.9274-7.2133-7.872-7.2133-1.4816 0-2.8917 0.0727-3.5701 0.109l0.0179 14.59zm-6.6225-20.059c0-0.2726 0.5177-0.4543 0.8211-0.4543 2.3741-0.109 5.9085-0.1816 9.5678-0.1816 10.282 0 14.298 5.7415 14.298 13.064 0 9.5935-6.8367 13.718-15.226 13.718-1.4102 0-1.8921-0.0727-2.8918-0.0727v14.499c0 0.3089-0.1071 0.4543-0.4462 0.4543h-5.6764c-0.3035 0-0.4463-0.1091-0.4463-0.4543v-40.573z" fill="#31C5F0"/>
  <defs>
    <radialGradient id="a" cx="0" cy="0" r="1" gradientTransform="translate(30.838 22.566) scale(62.056 61.156)" gradientUnits="userSpaceOnUse">
      <stop stop-color="#34364E" stop-opacity=".98" offset="0"/>
      <stop stop-color="#0C0824" offset="1"/>
    </radialGradient>
  </defs>
</svg>
